<svg id="图层_1" data-name="图层 1" xmlns="http://www.w3.org/2000/svg" xmlns:xlink="http://www.w3.org/1999/xlink" viewBox="0 0 425 548"><defs><style>.cls-1{fill:url(#未命名的渐变_11);}.cls-2{fill:url(#未命名的渐变_14);}</style><linearGradient id="未命名的渐变_11" x1="243.71" y1="524" x2="243.71" y2="11.12" gradientUnits="userSpaceOnUse"><stop offset="0" stop-color="#096dd9"/><stop offset="1" stop-color="#1890ff"/></linearGradient><linearGradient id="未命名的渐变_14" x1="97.77" y1="429.53" x2="97.77" y2="257.03" gradientUnits="userSpaceOnUse"><stop offset="0" stop-color="#f5222d"/><stop offset="1" stop-color="#ff4d4f"/></linearGradient></defs><title>画板 1</title><path class="cls-1" d="M406.91,125.09h0q0-16.77,0-33.55a78.12,78.12,0,0,0-9.87-38.86c-10.35-18.38-25.4-31.21-44.94-37.52a78.91,78.91,0,0,0-49.85,0c-19.54,6.31-34.58,19.14-44.93,37.52a77.91,77.91,0,0,0-9.87,38.86q0,116.46,0,232.92a157.86,157.86,0,0,1-3.64,34,144.78,144.78,0,0,1-24.35,54.81,149.56,149.56,0,0,1-60,49.32,153.3,153.3,0,0,1-35.25,10.84c-14.55,2.76-29.11,2.41-43.79,1.71-.12,1.27.57,1.55,1.06,2,30.17,25.35,65,40.18,103.9,45.43,19.38,2.62,38.75,1.68,58-1.64,15.69-2.71,30.7-7.73,45.3-14A191.78,191.78,0,0,0,334,479.06c37.08-30.07,59.53-69.2,69.29-115.71A181.35,181.35,0,0,0,407,326.13Q407,225.6,406.91,125.09Z"/><path class="cls-2" d="M184.07,345.5A85.72,85.72,0,0,0,98,257c-46.59-.45-84.76,36.66-86.52,82.57A86,86,0,0,0,93,429.4C144.79,432.14,182.54,391.29,184.07,345.5Z"/></svg>